<mxfile host="65bd71144e">
    <diagram id="l7WGVYG0zYqTmBEY1knY" name="Page 1">
        <mxGraphModel dx="1324" dy="863" grid="1" gridSize="10" guides="1" tooltips="1" connect="1" arrows="1" fold="1" page="1" pageScale="1" pageWidth="1100" pageHeight="850" math="0" shadow="0">
            <root>
                <mxCell id="0"/>
                <mxCell id="1" parent="0"/>
                <mxCell id="19" value="" style="rounded=1;whiteSpace=wrap;html=1;fillColor=#e6d0de;strokeColor=#996185;gradientColor=#d5739d;" parent="1" vertex="1">
                    <mxGeometry x="60" y="280" width="980" height="230" as="geometry"/>
                </mxCell>
                <mxCell id="7" value="&lt;h1&gt;Basic Flow Chart Group F&lt;/h1&gt;&lt;p&gt;In this flowchart we will displaying how your vehcile will use OpenCV to detect certain colors that will tell the car to move forward, slow down, stop, and even have the possibility of reversing.&amp;nbsp;&lt;/p&gt;" style="text;html=1;strokeColor=#006EAF;fillColor=#1ba1e2;spacing=5;spacingTop=-20;whiteSpace=wrap;overflow=hidden;rounded=0;fontColor=#ffffff;" parent="1" vertex="1">
                    <mxGeometry x="630" y="20" width="410" height="120" as="geometry"/>
                </mxCell>
                <mxCell id="8" value="Author: Paul Thai" style="text;html=1;strokeColor=#10739e;fillColor=#b1ddf0;align=center;verticalAlign=middle;whiteSpace=wrap;rounded=0;" parent="1" vertex="1">
                    <mxGeometry x="630" y="140" width="410" height="20" as="geometry"/>
                </mxCell>
                <mxCell id="12" value="" style="edgeStyle=orthogonalEdgeStyle;rounded=0;orthogonalLoop=1;jettySize=auto;html=1;" parent="1" source="9" target="11" edge="1">
                    <mxGeometry relative="1" as="geometry"/>
                </mxCell>
                <mxCell id="20" style="edgeStyle=orthogonalEdgeStyle;rounded=0;orthogonalLoop=1;jettySize=auto;html=1;" parent="1" source="9" target="21" edge="1">
                    <mxGeometry relative="1" as="geometry">
                        <mxPoint x="140" y="430" as="targetPoint"/>
                    </mxGeometry>
                </mxCell>
                <mxCell id="9" value="Designing and Planning Phase&amp;nbsp;" style="rounded=0;whiteSpace=wrap;html=1;" parent="1" vertex="1">
                    <mxGeometry x="80" y="320" width="120" height="60" as="geometry"/>
                </mxCell>
                <mxCell id="14" value="" style="edgeStyle=orthogonalEdgeStyle;rounded=0;orthogonalLoop=1;jettySize=auto;html=1;" parent="1" source="11" target="13" edge="1">
                    <mxGeometry relative="1" as="geometry"/>
                </mxCell>
                <mxCell id="24" style="edgeStyle=orthogonalEdgeStyle;rounded=0;orthogonalLoop=1;jettySize=auto;html=1;entryX=0.5;entryY=0;entryDx=0;entryDy=0;" parent="1" source="11" target="22" edge="1">
                    <mxGeometry relative="1" as="geometry"/>
                </mxCell>
                <mxCell id="11" value="Flowchart and map out the software logic" style="rounded=0;whiteSpace=wrap;html=1;" parent="1" vertex="1">
                    <mxGeometry x="280" y="320" width="120" height="60" as="geometry"/>
                </mxCell>
                <mxCell id="16" value="" style="edgeStyle=orthogonalEdgeStyle;rounded=0;orthogonalLoop=1;jettySize=auto;html=1;" parent="1" source="13" target="15" edge="1">
                    <mxGeometry relative="1" as="geometry"/>
                </mxCell>
                <mxCell id="25" style="edgeStyle=orthogonalEdgeStyle;rounded=0;orthogonalLoop=1;jettySize=auto;html=1;entryX=0.5;entryY=0;entryDx=0;entryDy=0;" parent="1" source="13" target="23" edge="1">
                    <mxGeometry relative="1" as="geometry"/>
                </mxCell>
                <mxCell id="13" value="Purchase the necessary hardware and research on how to program the motors" style="rounded=0;whiteSpace=wrap;html=1;" parent="1" vertex="1">
                    <mxGeometry x="470" y="310" width="130" height="80" as="geometry"/>
                </mxCell>
                <mxCell id="18" value="" style="edgeStyle=orthogonalEdgeStyle;rounded=0;orthogonalLoop=1;jettySize=auto;html=1;" parent="1" source="15" target="17" edge="1">
                    <mxGeometry relative="1" as="geometry"/>
                </mxCell>
                <mxCell id="15" value="Implement Hardware and Software together" style="rounded=0;whiteSpace=wrap;html=1;" parent="1" vertex="1">
                    <mxGeometry x="680" y="310" width="130" height="80" as="geometry"/>
                </mxCell>
                <mxCell id="17" value="Turn in Project" style="rounded=0;whiteSpace=wrap;html=1;" parent="1" vertex="1">
                    <mxGeometry x="890" y="310" width="130" height="80" as="geometry"/>
                </mxCell>
                <mxCell id="21" value="Page 1" style="ellipse;whiteSpace=wrap;html=1;aspect=fixed;" parent="1" vertex="1">
                    <mxGeometry x="107.5" y="425" width="65" height="65" as="geometry"/>
                </mxCell>
                <mxCell id="22" value="Page 2" style="ellipse;whiteSpace=wrap;html=1;aspect=fixed;" parent="1" vertex="1">
                    <mxGeometry x="307.5" y="420" width="65" height="65" as="geometry"/>
                </mxCell>
                <mxCell id="23" value="Page 3" style="ellipse;whiteSpace=wrap;html=1;aspect=fixed;" parent="1" vertex="1">
                    <mxGeometry x="502.5" y="420" width="65" height="65" as="geometry"/>
                </mxCell>
            </root>
        </mxGraphModel>
    </diagram>
    <diagram id="B6JQQYlfSQWsqYImwOg_" name="Page 2">
        <mxGraphModel dx="1324" dy="863" grid="1" gridSize="10" guides="1" tooltips="1" connect="1" arrows="1" fold="1" page="1" pageScale="1" pageWidth="1100" pageHeight="850" math="0" shadow="0">
            <root>
                <mxCell id="VB9rVEa6Kl20qZPQmBgk-0"/>
                <mxCell id="VB9rVEa6Kl20qZPQmBgk-1" parent="VB9rVEa6Kl20qZPQmBgk-0"/>
                <mxCell id="SsY8bHT_XZ95Y2hFdexc-35" value="" style="rounded=1;whiteSpace=wrap;html=1;fillColor=#f8cecc;strokeColor=#b85450;gradientColor=#ea6b66;" parent="VB9rVEa6Kl20qZPQmBgk-1" vertex="1">
                    <mxGeometry x="120" y="25" width="900" height="735" as="geometry"/>
                </mxCell>
                <mxCell id="LOPM6uN6wtrp5sNegT4o-0" value="&lt;h1&gt;Software Logic&lt;/h1&gt;&lt;p&gt;The goal is to implement OpenCV using the HSV filter to differentiate the colors that tell the car to perform certain actions.&amp;nbsp;&lt;/p&gt;" style="text;html=1;strokeColor=#314354;fillColor=#647687;spacing=5;spacingTop=-20;whiteSpace=wrap;overflow=hidden;rounded=0;fontColor=#ffffff;" parent="VB9rVEa6Kl20qZPQmBgk-1" vertex="1">
                    <mxGeometry x="150" y="105" width="240" height="100" as="geometry"/>
                </mxCell>
                <mxCell id="LOPM6uN6wtrp5sNegT4o-1" value="Author:&lt;br&gt;&amp;nbsp;Paul Thai" style="text;html=1;align=center;verticalAlign=middle;whiteSpace=wrap;rounded=0;gradientColor=#b3b3b3;fillColor=#f5f5f5;strokeColor=#666666;" parent="VB9rVEa6Kl20qZPQmBgk-1" vertex="1">
                    <mxGeometry x="390" y="105" width="100" height="100" as="geometry"/>
                </mxCell>
                <mxCell id="LOPM6uN6wtrp5sNegT4o-4" style="edgeStyle=orthogonalEdgeStyle;rounded=0;orthogonalLoop=1;jettySize=auto;html=1;entryX=1;entryY=0.5;entryDx=0;entryDy=0;" parent="VB9rVEa6Kl20qZPQmBgk-1" source="LOPM6uN6wtrp5sNegT4o-2" target="LOPM6uN6wtrp5sNegT4o-3" edge="1">
                    <mxGeometry relative="1" as="geometry"/>
                </mxCell>
                <mxCell id="LOPM6uN6wtrp5sNegT4o-2" value="Get all libraries and scripts onto the Arudion or RPI4" style="rounded=1;whiteSpace=wrap;html=1;strokeColor=#0e8088;fillColor=#627E80;" parent="VB9rVEa6Kl20qZPQmBgk-1" vertex="1">
                    <mxGeometry x="320" y="255" width="140" height="60" as="geometry"/>
                </mxCell>
                <mxCell id="LOPM6uN6wtrp5sNegT4o-5" style="edgeStyle=orthogonalEdgeStyle;rounded=0;orthogonalLoop=1;jettySize=auto;html=1;" parent="VB9rVEa6Kl20qZPQmBgk-1" source="LOPM6uN6wtrp5sNegT4o-3" edge="1">
                    <mxGeometry relative="1" as="geometry">
                        <mxPoint x="180" y="395" as="targetPoint"/>
                    </mxGeometry>
                </mxCell>
                <mxCell id="LOPM6uN6wtrp5sNegT4o-3" value="&lt;font color=&quot;#0a0a0a&quot;&gt;Car Powers on and is ready to operate&lt;/font&gt;" style="rounded=0;whiteSpace=wrap;html=1;fillColor=#bac8d3;strokeColor=#23445d;" parent="VB9rVEa6Kl20qZPQmBgk-1" vertex="1">
                    <mxGeometry x="120" y="295" width="120" height="60" as="geometry"/>
                </mxCell>
                <mxCell id="LOPM6uN6wtrp5sNegT4o-9" value="" style="edgeStyle=orthogonalEdgeStyle;rounded=0;orthogonalLoop=1;jettySize=auto;html=1;" parent="VB9rVEa6Kl20qZPQmBgk-1" source="LOPM6uN6wtrp5sNegT4o-6" target="LOPM6uN6wtrp5sNegT4o-8" edge="1">
                    <mxGeometry relative="1" as="geometry"/>
                </mxCell>
                <mxCell id="LOPM6uN6wtrp5sNegT4o-6" value="Open the Frame and then toggle the grayscale mask funcitonality" style="rounded=1;whiteSpace=wrap;html=1;strokeColor=#0e8088;fillColor=#405354;" parent="VB9rVEa6Kl20qZPQmBgk-1" vertex="1">
                    <mxGeometry x="120" y="395" width="120" height="60" as="geometry"/>
                </mxCell>
                <mxCell id="LOPM6uN6wtrp5sNegT4o-14" style="edgeStyle=orthogonalEdgeStyle;rounded=0;orthogonalLoop=1;jettySize=auto;html=1;entryX=0;entryY=0.5;entryDx=0;entryDy=0;" parent="VB9rVEa6Kl20qZPQmBgk-1" source="LOPM6uN6wtrp5sNegT4o-8" target="LOPM6uN6wtrp5sNegT4o-13" edge="1">
                    <mxGeometry relative="1" as="geometry"/>
                </mxCell>
                <mxCell id="LOPM6uN6wtrp5sNegT4o-8" value="Switch to the HSV mask functionality" style="whiteSpace=wrap;html=1;rounded=1;strokeColor=#0e8088;fillColor=#69888A;" parent="VB9rVEa6Kl20qZPQmBgk-1" vertex="1">
                    <mxGeometry x="120" y="495" width="120" height="60" as="geometry"/>
                </mxCell>
                <mxCell id="SsY8bHT_XZ95Y2hFdexc-7" style="edgeStyle=orthogonalEdgeStyle;rounded=0;orthogonalLoop=1;jettySize=auto;html=1;entryX=0;entryY=0.5;entryDx=0;entryDy=0;" parent="VB9rVEa6Kl20qZPQmBgk-1" source="LOPM6uN6wtrp5sNegT4o-11" target="SsY8bHT_XZ95Y2hFdexc-8" edge="1">
                    <mxGeometry relative="1" as="geometry">
                        <mxPoint x="550" y="115" as="targetPoint"/>
                        <Array as="points">
                            <mxPoint x="550" y="415"/>
                            <mxPoint x="550" y="135"/>
                        </Array>
                    </mxGeometry>
                </mxCell>
                <mxCell id="LOPM6uN6wtrp5sNegT4o-11" value="Check and see what colors are present in front of the vehicle" style="rounded=1;whiteSpace=wrap;html=1;fillColor=#60a917;strokeColor=#2D7600;fontColor=#ffffff;" parent="VB9rVEa6Kl20qZPQmBgk-1" vertex="1">
                    <mxGeometry x="410" y="385" width="120" height="60" as="geometry"/>
                </mxCell>
                <mxCell id="LOPM6uN6wtrp5sNegT4o-17" style="edgeStyle=orthogonalEdgeStyle;rounded=0;orthogonalLoop=1;jettySize=auto;html=1;entryX=0;entryY=0.5;entryDx=0;entryDy=0;exitX=0.5;exitY=0;exitDx=0;exitDy=0;" parent="VB9rVEa6Kl20qZPQmBgk-1" source="LOPM6uN6wtrp5sNegT4o-13" target="LOPM6uN6wtrp5sNegT4o-11" edge="1">
                    <mxGeometry relative="1" as="geometry"/>
                </mxCell>
                <mxCell id="LOPM6uN6wtrp5sNegT4o-18" style="edgeStyle=orthogonalEdgeStyle;rounded=0;orthogonalLoop=1;jettySize=auto;html=1;entryX=0;entryY=0.5;entryDx=0;entryDy=0;exitX=0.5;exitY=1;exitDx=0;exitDy=0;" parent="VB9rVEa6Kl20qZPQmBgk-1" source="LOPM6uN6wtrp5sNegT4o-13" target="LOPM6uN6wtrp5sNegT4o-15" edge="1">
                    <mxGeometry relative="1" as="geometry"/>
                </mxCell>
                <mxCell id="LOPM6uN6wtrp5sNegT4o-13" value="User operates if its going forward or reverse" style="rhombus;whiteSpace=wrap;html=1;strokeColor=#b46504;fillColor=#A6995A;" parent="VB9rVEa6Kl20qZPQmBgk-1" vertex="1">
                    <mxGeometry x="300" y="460" width="130" height="130" as="geometry"/>
                </mxCell>
                <mxCell id="LOPM6uN6wtrp5sNegT4o-22" style="edgeStyle=orthogonalEdgeStyle;rounded=0;orthogonalLoop=1;jettySize=auto;html=1;entryX=0;entryY=0.5;entryDx=0;entryDy=0;" parent="VB9rVEa6Kl20qZPQmBgk-1" source="LOPM6uN6wtrp5sNegT4o-15" target="LOPM6uN6wtrp5sNegT4o-21" edge="1">
                    <mxGeometry relative="1" as="geometry"/>
                </mxCell>
                <mxCell id="LOPM6uN6wtrp5sNegT4o-15" value="Check and see what colors are present in front of the vehicle" style="rounded=1;whiteSpace=wrap;html=1;gradientColor=#d5739d;fillColor=#e6d0de;strokeColor=#996185;" parent="VB9rVEa6Kl20qZPQmBgk-1" vertex="1">
                    <mxGeometry x="410" y="595" width="120" height="60" as="geometry"/>
                </mxCell>
                <mxCell id="LOPM6uN6wtrp5sNegT4o-19" value="True = Forward" style="text;html=1;align=center;verticalAlign=middle;resizable=0;points=[];autosize=1;strokeColor=none;" parent="VB9rVEa6Kl20qZPQmBgk-1" vertex="1">
                    <mxGeometry x="380" y="460" width="100" height="20" as="geometry"/>
                </mxCell>
                <mxCell id="LOPM6uN6wtrp5sNegT4o-20" value="False = Reverse" style="text;html=1;align=center;verticalAlign=middle;resizable=0;points=[];autosize=1;strokeColor=none;" parent="VB9rVEa6Kl20qZPQmBgk-1" vertex="1">
                    <mxGeometry x="380" y="575" width="100" height="20" as="geometry"/>
                </mxCell>
                <mxCell id="LOPM6uN6wtrp5sNegT4o-24" style="edgeStyle=orthogonalEdgeStyle;rounded=0;orthogonalLoop=1;jettySize=auto;html=1;entryX=0;entryY=0.5;entryDx=0;entryDy=0;exitX=0.5;exitY=1;exitDx=0;exitDy=0;" parent="VB9rVEa6Kl20qZPQmBgk-1" source="LOPM6uN6wtrp5sNegT4o-21" target="LOPM6uN6wtrp5sNegT4o-25" edge="1">
                    <mxGeometry relative="1" as="geometry">
                        <mxPoint x="650" y="565" as="targetPoint"/>
                    </mxGeometry>
                </mxCell>
                <mxCell id="LOPM6uN6wtrp5sNegT4o-28" style="edgeStyle=orthogonalEdgeStyle;rounded=0;orthogonalLoop=1;jettySize=auto;html=1;exitX=0.5;exitY=0;exitDx=0;exitDy=0;entryX=0;entryY=0.5;entryDx=0;entryDy=0;" parent="VB9rVEa6Kl20qZPQmBgk-1" source="LOPM6uN6wtrp5sNegT4o-21" target="LOPM6uN6wtrp5sNegT4o-29" edge="1">
                    <mxGeometry relative="1" as="geometry">
                        <mxPoint x="620" y="535" as="targetPoint"/>
                    </mxGeometry>
                </mxCell>
                <mxCell id="LOPM6uN6wtrp5sNegT4o-21" value="Is the Color Purple?&amp;nbsp;" style="rhombus;whiteSpace=wrap;html=1;gradientColor=#d5739d;fillColor=#e6d0de;strokeColor=#996185;" parent="VB9rVEa6Kl20qZPQmBgk-1" vertex="1">
                    <mxGeometry x="580" y="585" width="80" height="80" as="geometry"/>
                </mxCell>
                <mxCell id="SsY8bHT_XZ95Y2hFdexc-6" style="edgeStyle=orthogonalEdgeStyle;rounded=0;orthogonalLoop=1;jettySize=auto;html=1;entryX=0.5;entryY=1;entryDx=0;entryDy=0;" parent="VB9rVEa6Kl20qZPQmBgk-1" source="LOPM6uN6wtrp5sNegT4o-25" target="SsY8bHT_XZ95Y2hFdexc-3" edge="1">
                    <mxGeometry relative="1" as="geometry"/>
                </mxCell>
                <mxCell id="LOPM6uN6wtrp5sNegT4o-25" value="Car Will proceed to reverse at a set speed" style="rounded=1;whiteSpace=wrap;html=1;fillColor=#6a00ff;strokeColor=#3700CC;fontColor=#ffffff;" parent="VB9rVEa6Kl20qZPQmBgk-1" vertex="1">
                    <mxGeometry x="640" y="685" width="120" height="60" as="geometry"/>
                </mxCell>
                <mxCell id="LOPM6uN6wtrp5sNegT4o-26" value="True" style="text;html=1;align=center;verticalAlign=middle;resizable=0;points=[];autosize=1;strokeColor=none;" parent="VB9rVEa6Kl20qZPQmBgk-1" vertex="1">
                    <mxGeometry x="630" y="665" width="40" height="20" as="geometry"/>
                </mxCell>
                <mxCell id="LOPM6uN6wtrp5sNegT4o-27" value="False" style="text;html=1;align=center;verticalAlign=middle;resizable=0;points=[];autosize=1;strokeColor=none;" parent="VB9rVEa6Kl20qZPQmBgk-1" vertex="1">
                    <mxGeometry x="630" y="575" width="40" height="20" as="geometry"/>
                </mxCell>
                <mxCell id="LOPM6uN6wtrp5sNegT4o-30" style="edgeStyle=orthogonalEdgeStyle;rounded=0;orthogonalLoop=1;jettySize=auto;html=1;" parent="VB9rVEa6Kl20qZPQmBgk-1" source="LOPM6uN6wtrp5sNegT4o-29" edge="1">
                    <mxGeometry relative="1" as="geometry">
                        <mxPoint x="790" y="565" as="targetPoint"/>
                    </mxGeometry>
                </mxCell>
                <mxCell id="LOPM6uN6wtrp5sNegT4o-29" value="Color is Red" style="rounded=1;whiteSpace=wrap;html=1;gradientColor=#ea6b66;fillColor=#f8cecc;strokeColor=#b85450;" parent="VB9rVEa6Kl20qZPQmBgk-1" vertex="1">
                    <mxGeometry x="670" y="545" width="90" height="40" as="geometry"/>
                </mxCell>
                <mxCell id="SsY8bHT_XZ95Y2hFdexc-2" style="edgeStyle=orthogonalEdgeStyle;rounded=0;orthogonalLoop=1;jettySize=auto;html=1;entryX=0.5;entryY=0;entryDx=0;entryDy=0;" parent="VB9rVEa6Kl20qZPQmBgk-1" source="LOPM6uN6wtrp5sNegT4o-31" target="SsY8bHT_XZ95Y2hFdexc-3" edge="1">
                    <mxGeometry relative="1" as="geometry">
                        <mxPoint x="830" y="615" as="targetPoint"/>
                    </mxGeometry>
                </mxCell>
                <mxCell id="LOPM6uN6wtrp5sNegT4o-31" value="Car stops" style="rounded=1;whiteSpace=wrap;html=1;fillColor=#e51400;strokeColor=#B20000;fontColor=#ffffff;" parent="VB9rVEa6Kl20qZPQmBgk-1" vertex="1">
                    <mxGeometry x="790" y="545" width="80" height="40" as="geometry"/>
                </mxCell>
                <mxCell id="SsY8bHT_XZ95Y2hFdexc-3" value="1" style="ellipse;whiteSpace=wrap;html=1;aspect=fixed;fillColor=#e1d5e7;strokeColor=#9673a6;" parent="VB9rVEa6Kl20qZPQmBgk-1" vertex="1">
                    <mxGeometry x="810" y="615" width="40" height="40" as="geometry"/>
                </mxCell>
                <mxCell id="SsY8bHT_XZ95Y2hFdexc-5" style="edgeStyle=orthogonalEdgeStyle;rounded=0;orthogonalLoop=1;jettySize=auto;html=1;exitX=0.5;exitY=0;exitDx=0;exitDy=0;entryX=0.5;entryY=1;entryDx=0;entryDy=0;" parent="VB9rVEa6Kl20qZPQmBgk-1" source="SsY8bHT_XZ95Y2hFdexc-4" target="LOPM6uN6wtrp5sNegT4o-15" edge="1">
                    <mxGeometry relative="1" as="geometry"/>
                </mxCell>
                <mxCell id="SsY8bHT_XZ95Y2hFdexc-4" value="1" style="ellipse;whiteSpace=wrap;html=1;aspect=fixed;fillColor=#e1d5e7;strokeColor=#9673a6;" parent="VB9rVEa6Kl20qZPQmBgk-1" vertex="1">
                    <mxGeometry x="450" y="675" width="40" height="40" as="geometry"/>
                </mxCell>
                <mxCell id="SsY8bHT_XZ95Y2hFdexc-9" style="edgeStyle=orthogonalEdgeStyle;rounded=0;orthogonalLoop=1;jettySize=auto;html=1;entryX=0;entryY=0.5;entryDx=0;entryDy=0;exitX=1;exitY=0.5;exitDx=0;exitDy=0;" parent="VB9rVEa6Kl20qZPQmBgk-1" source="SsY8bHT_XZ95Y2hFdexc-8" target="SsY8bHT_XZ95Y2hFdexc-11" edge="1">
                    <mxGeometry relative="1" as="geometry">
                        <mxPoint x="660" y="75" as="targetPoint"/>
                    </mxGeometry>
                </mxCell>
                <mxCell id="SsY8bHT_XZ95Y2hFdexc-16" style="edgeStyle=orthogonalEdgeStyle;rounded=0;orthogonalLoop=1;jettySize=auto;html=1;entryX=0.5;entryY=0;entryDx=0;entryDy=0;" parent="VB9rVEa6Kl20qZPQmBgk-1" source="SsY8bHT_XZ95Y2hFdexc-8" target="SsY8bHT_XZ95Y2hFdexc-14" edge="1">
                    <mxGeometry relative="1" as="geometry"/>
                </mxCell>
                <mxCell id="SsY8bHT_XZ95Y2hFdexc-8" value="Is the Color Green?" style="rhombus;whiteSpace=wrap;html=1;gradientColor=#97d077;fillColor=#d5e8d4;strokeColor=#82b366;" parent="VB9rVEa6Kl20qZPQmBgk-1" vertex="1">
                    <mxGeometry x="580" y="95" width="80" height="80" as="geometry"/>
                </mxCell>
                <mxCell id="SsY8bHT_XZ95Y2hFdexc-10" value="True" style="text;html=1;align=center;verticalAlign=middle;resizable=0;points=[];autosize=1;strokeColor=none;" parent="VB9rVEa6Kl20qZPQmBgk-1" vertex="1">
                    <mxGeometry x="650" y="115" width="40" height="20" as="geometry"/>
                </mxCell>
                <mxCell id="SsY8bHT_XZ95Y2hFdexc-13" style="edgeStyle=orthogonalEdgeStyle;rounded=0;orthogonalLoop=1;jettySize=auto;html=1;entryX=0;entryY=0.5;entryDx=0;entryDy=0;" parent="VB9rVEa6Kl20qZPQmBgk-1" source="SsY8bHT_XZ95Y2hFdexc-11" target="SsY8bHT_XZ95Y2hFdexc-12" edge="1">
                    <mxGeometry relative="1" as="geometry"/>
                </mxCell>
                <mxCell id="SsY8bHT_XZ95Y2hFdexc-11" value="Car will move forward at a set speed." style="rounded=1;whiteSpace=wrap;html=1;fillColor=#008a00;strokeColor=#005700;fontColor=#ffffff;" parent="VB9rVEa6Kl20qZPQmBgk-1" vertex="1">
                    <mxGeometry x="700" y="105" width="120" height="60" as="geometry"/>
                </mxCell>
                <mxCell id="SsY8bHT_XZ95Y2hFdexc-12" value="2" style="ellipse;whiteSpace=wrap;html=1;aspect=fixed;fillColor=#1ba1e2;strokeColor=#006EAF;fontColor=#ffffff;" parent="VB9rVEa6Kl20qZPQmBgk-1" vertex="1">
                    <mxGeometry x="860" y="115" width="40" height="40" as="geometry"/>
                </mxCell>
                <mxCell id="SsY8bHT_XZ95Y2hFdexc-19" style="edgeStyle=orthogonalEdgeStyle;rounded=0;orthogonalLoop=1;jettySize=auto;html=1;entryX=0.5;entryY=0;entryDx=0;entryDy=0;" parent="VB9rVEa6Kl20qZPQmBgk-1" source="SsY8bHT_XZ95Y2hFdexc-14" target="SsY8bHT_XZ95Y2hFdexc-15" edge="1">
                    <mxGeometry relative="1" as="geometry"/>
                </mxCell>
                <mxCell id="SsY8bHT_XZ95Y2hFdexc-22" style="edgeStyle=orthogonalEdgeStyle;rounded=0;orthogonalLoop=1;jettySize=auto;html=1;entryX=0;entryY=0.5;entryDx=0;entryDy=0;" parent="VB9rVEa6Kl20qZPQmBgk-1" source="SsY8bHT_XZ95Y2hFdexc-14" target="SsY8bHT_XZ95Y2hFdexc-21" edge="1">
                    <mxGeometry relative="1" as="geometry"/>
                </mxCell>
                <mxCell id="SsY8bHT_XZ95Y2hFdexc-14" value="Is the Color Yellow?" style="rhombus;whiteSpace=wrap;html=1;fillColor=#e3c800;strokeColor=#B09500;fontColor=#000000;" parent="VB9rVEa6Kl20qZPQmBgk-1" vertex="1">
                    <mxGeometry x="580" y="205" width="80" height="80" as="geometry"/>
                </mxCell>
                <mxCell id="SsY8bHT_XZ95Y2hFdexc-24" style="edgeStyle=orthogonalEdgeStyle;rounded=0;orthogonalLoop=1;jettySize=auto;html=1;entryX=0;entryY=0.5;entryDx=0;entryDy=0;" parent="VB9rVEa6Kl20qZPQmBgk-1" source="SsY8bHT_XZ95Y2hFdexc-15" target="SsY8bHT_XZ95Y2hFdexc-23" edge="1">
                    <mxGeometry relative="1" as="geometry"/>
                </mxCell>
                <mxCell id="SsY8bHT_XZ95Y2hFdexc-34" style="edgeStyle=orthogonalEdgeStyle;rounded=0;orthogonalLoop=1;jettySize=auto;html=1;entryX=0.5;entryY=0;entryDx=0;entryDy=0;" parent="VB9rVEa6Kl20qZPQmBgk-1" source="SsY8bHT_XZ95Y2hFdexc-15" target="SsY8bHT_XZ95Y2hFdexc-33" edge="1">
                    <mxGeometry relative="1" as="geometry"/>
                </mxCell>
                <mxCell id="SsY8bHT_XZ95Y2hFdexc-15" value="Is the Color Red?" style="rhombus;whiteSpace=wrap;html=1;gradientColor=#ea6b66;fillColor=#f8cecc;strokeColor=#b85450;" parent="VB9rVEa6Kl20qZPQmBgk-1" vertex="1">
                    <mxGeometry x="580" y="325" width="80" height="80" as="geometry"/>
                </mxCell>
                <mxCell id="SsY8bHT_XZ95Y2hFdexc-17" value="False" style="text;html=1;align=center;verticalAlign=middle;resizable=0;points=[];autosize=1;strokeColor=none;" parent="VB9rVEa6Kl20qZPQmBgk-1" vertex="1">
                    <mxGeometry x="620" y="175" width="40" height="20" as="geometry"/>
                </mxCell>
                <mxCell id="SsY8bHT_XZ95Y2hFdexc-20" value="False" style="text;html=1;align=center;verticalAlign=middle;resizable=0;points=[];autosize=1;strokeColor=none;" parent="VB9rVEa6Kl20qZPQmBgk-1" vertex="1">
                    <mxGeometry x="620" y="285" width="40" height="20" as="geometry"/>
                </mxCell>
                <mxCell id="SsY8bHT_XZ95Y2hFdexc-26" style="edgeStyle=orthogonalEdgeStyle;rounded=0;orthogonalLoop=1;jettySize=auto;html=1;entryX=0;entryY=0.5;entryDx=0;entryDy=0;" parent="VB9rVEa6Kl20qZPQmBgk-1" source="SsY8bHT_XZ95Y2hFdexc-21" target="SsY8bHT_XZ95Y2hFdexc-25" edge="1">
                    <mxGeometry relative="1" as="geometry"/>
                </mxCell>
                <mxCell id="SsY8bHT_XZ95Y2hFdexc-21" value="Car will move forward at a set speed (slower)." style="rounded=1;whiteSpace=wrap;html=1;fillColor=#e3c800;strokeColor=#B09500;fontColor=#000000;" parent="VB9rVEa6Kl20qZPQmBgk-1" vertex="1">
                    <mxGeometry x="700" y="215" width="120" height="60" as="geometry"/>
                </mxCell>
                <mxCell id="SsY8bHT_XZ95Y2hFdexc-28" style="edgeStyle=orthogonalEdgeStyle;rounded=0;orthogonalLoop=1;jettySize=auto;html=1;entryX=0;entryY=0.5;entryDx=0;entryDy=0;" parent="VB9rVEa6Kl20qZPQmBgk-1" source="SsY8bHT_XZ95Y2hFdexc-23" target="SsY8bHT_XZ95Y2hFdexc-27" edge="1">
                    <mxGeometry relative="1" as="geometry"/>
                </mxCell>
                <mxCell id="SsY8bHT_XZ95Y2hFdexc-23" value="Car will stop" style="rounded=1;whiteSpace=wrap;html=1;fillColor=#e51400;strokeColor=#B20000;fontColor=#ffffff;" parent="VB9rVEa6Kl20qZPQmBgk-1" vertex="1">
                    <mxGeometry x="700" y="335" width="120" height="60" as="geometry"/>
                </mxCell>
                <mxCell id="SsY8bHT_XZ95Y2hFdexc-25" value="2" style="ellipse;whiteSpace=wrap;html=1;aspect=fixed;fillColor=#1ba1e2;strokeColor=#006EAF;fontColor=#ffffff;" parent="VB9rVEa6Kl20qZPQmBgk-1" vertex="1">
                    <mxGeometry x="860" y="225" width="40" height="40" as="geometry"/>
                </mxCell>
                <mxCell id="SsY8bHT_XZ95Y2hFdexc-27" value="2" style="ellipse;whiteSpace=wrap;html=1;aspect=fixed;fillColor=#1ba1e2;strokeColor=#006EAF;fontColor=#ffffff;" parent="VB9rVEa6Kl20qZPQmBgk-1" vertex="1">
                    <mxGeometry x="860" y="345" width="40" height="40" as="geometry"/>
                </mxCell>
                <mxCell id="SsY8bHT_XZ95Y2hFdexc-30" style="edgeStyle=orthogonalEdgeStyle;rounded=0;orthogonalLoop=1;jettySize=auto;html=1;" parent="VB9rVEa6Kl20qZPQmBgk-1" source="SsY8bHT_XZ95Y2hFdexc-29" target="LOPM6uN6wtrp5sNegT4o-11" edge="1">
                    <mxGeometry relative="1" as="geometry"/>
                </mxCell>
                <mxCell id="SsY8bHT_XZ95Y2hFdexc-29" value="2" style="ellipse;whiteSpace=wrap;html=1;aspect=fixed;fillColor=#1ba1e2;strokeColor=#006EAF;fontColor=#ffffff;" parent="VB9rVEa6Kl20qZPQmBgk-1" vertex="1">
                    <mxGeometry x="450" y="325" width="40" height="40" as="geometry"/>
                </mxCell>
                <mxCell id="SsY8bHT_XZ95Y2hFdexc-31" value="True" style="text;html=1;align=center;verticalAlign=middle;resizable=0;points=[];autosize=1;strokeColor=none;" parent="VB9rVEa6Kl20qZPQmBgk-1" vertex="1">
                    <mxGeometry x="650" y="225" width="40" height="20" as="geometry"/>
                </mxCell>
                <mxCell id="SsY8bHT_XZ95Y2hFdexc-32" value="True" style="text;html=1;align=center;verticalAlign=middle;resizable=0;points=[];autosize=1;strokeColor=none;" parent="VB9rVEa6Kl20qZPQmBgk-1" vertex="1">
                    <mxGeometry x="650" y="345" width="40" height="20" as="geometry"/>
                </mxCell>
                <mxCell id="SsY8bHT_XZ95Y2hFdexc-33" value="2" style="ellipse;whiteSpace=wrap;html=1;aspect=fixed;fillColor=#1ba1e2;strokeColor=#006EAF;fontColor=#ffffff;" parent="VB9rVEa6Kl20qZPQmBgk-1" vertex="1">
                    <mxGeometry x="600" y="435" width="40" height="40" as="geometry"/>
                </mxCell>
            </root>
        </mxGraphModel>
    </diagram>
    <diagram id="OAVql9gux_SVoYcHLPEY" name="Page 3">
        <mxGraphModel dx="990" dy="575" grid="1" gridSize="10" guides="1" tooltips="1" connect="1" arrows="1" fold="1" page="1" pageScale="1" pageWidth="1100" pageHeight="850" math="0" shadow="0">
            <root>
                <mxCell id="n6KKkRIBfpleJmcxOHX5-0"/>
                <mxCell id="n6KKkRIBfpleJmcxOHX5-1" parent="n6KKkRIBfpleJmcxOHX5-0"/>
            </root>
        </mxGraphModel>
    </diagram>
</mxfile>